<?xml version="1.0" standalone="no"?>
<!DOCTYPE svg PUBLIC "-//W3C//DTD SVG 20010904//EN"
 "http://www.w3.org/TR/2001/REC-SVG-20010904/DTD/svg10.dtd">
<svg version="1.0" xmlns="http://www.w3.org/2000/svg"
 width="363.000000pt" height="363.000000pt" viewBox="0 0 363.000000 363.000000"
 preserveAspectRatio="xMidYMid meet">

<g transform="translate(0.000000,363.000000) scale(0.100000,-0.100000)"
fill="#000000" stroke="none">
<path d="M1705 3050 c-16 -33 -31 -60 -34 -60 -3 1 -23 26 -44 56 -22 31 -41
53 -44 50 -8 -8 8 -167 16 -162 4 3 4 31 0 63 -3 32 -5 59 -4 61 1 1 19 -20
40 -47 l39 -50 19 31 c10 17 24 43 30 57 9 24 11 21 20 -37 5 -35 11 -61 14
-58 7 7 -8 156 -16 156 -4 0 -20 -27 -36 -60z"/>
<path d="M1927 3034 c-26 -43 -44 -80 -42 -83 3 -3 12 5 20 16 12 18 22 20 57
16 27 -3 49 -13 60 -27 10 -11 18 -15 18 -9 0 17 -49 146 -59 156 -5 5 -29
-27 -54 -69z m73 -24 c0 -12 -8 -15 -35 -12 -19 2 -35 6 -35 8 0 1 10 20 22
40 l22 38 13 -30 c6 -16 12 -36 13 -44z"/>
<path d="M1338 3038 c-21 -6 -38 -15 -38 -21 0 -19 44 -147 50 -147 4 0 5 13
2 29 -3 24 0 29 23 35 18 5 33 1 52 -14 14 -11 29 -18 32 -14 3 3 -5 13 -18
23 -20 15 -22 21 -12 39 15 29 14 39 -9 62 -22 22 -28 23 -82 8z m80 -39 c4
-30 -16 -49 -54 -52 -22 -2 -29 3 -35 28 -13 46 -5 57 43 53 38 -3 43 -6 46
-29z"/>
<path d="M2334 2937 l-32 -72 50 -23 c27 -13 52 -21 55 -18 3 3 -12 13 -33 23
-22 9 -41 18 -43 20 -2 1 8 34 22 73 15 38 23 70 19 70 -4 0 -21 -33 -38 -73z"/>
<path d="M1081 2878 c0 -61 16 -151 18 -106 1 37 74 77 104 59 16 -10 39 -8
26 2 -83 64 -131 97 -139 97 -6 0 -10 -24 -9 -52z m62 -39 c-40 -27 -43 -24
-43 27 l0 45 35 -27 36 -27 -28 -18z"/>
<path d="M2556 2842 c-38 -63 -50 -108 -15 -57 30 45 61 106 56 112 -3 2 -21
-23 -41 -55z"/>
<path d="M880 2802 c0 -5 9 -17 20 -27 31 -28 28 -36 -37 -81 -21 -15 -24 -14
-47 13 -43 49 -28 11 20 -50 45 -58 73 -73 39 -21 l-18 28 38 35 38 34 29 -33
c15 -19 28 -29 28 -23 0 12 -96 133 -105 133 -3 0 -5 -4 -5 -8z"/>
<path d="M2697 2743 c-57 -71 -62 -96 -6 -30 23 26 44 47 48 47 3 0 5 -34 3
-76 -3 -42 0 -79 4 -84 10 -9 89 83 100 116 6 16 -32 -22 -73 -75 -10 -13 -12
1 -13 72 0 48 -4 87 -8 87 -5 0 -30 -26 -55 -57z"/>
<path d="M625 2559 c-32 -28 -46 -59 -27 -59 4 0 31 -21 60 -46 29 -26 56 -43
60 -39 4 3 -1 11 -11 16 -22 13 -22 25 3 56 26 34 25 68 -2 87 -31 22 -42 20
-83 -15z m89 -11 c8 -13 6 -23 -10 -45 -27 -36 -34 -37 -69 -9 l-30 24 25 27
c27 29 66 31 84 3z"/>
<path d="M2905 2538 c-33 -28 -51 -49 -40 -46 73 20 78 17 69 -48 -4 -37 -3
-55 3 -51 6 4 13 29 17 57 l7 50 47 1 c46 2 40 4 -48 15 l-45 6 39 34 c22 19
33 34 25 34 -8 -1 -41 -24 -74 -52z"/>
<path d="M1630 2245 c0 -169 3 -255 10 -255 22 0 107 50 165 97 108 87 182
224 199 366 l6 47 -190 0 -190 0 0 -255z"/>
<path d="M1970 1473 c-26 -10 -131 -84 -172 -121 -80 -72 -146 -207 -163 -334
l-6 -48 190 0 191 0 0 255 c0 264 0 263 -40 248z"/>
<path d="M800 566 c0 -139 1 -146 20 -146 17 0 20 7 20 45 l0 45 59 0 c96 0
147 48 131 124 -10 50 -50 71 -146 75 l-84 3 0 -146z m176 89 c20 -27 17 -72
-6 -95 -15 -15 -33 -20 -75 -20 l-55 0 0 71 0 71 61 -4 c45 -3 65 -10 75 -23z"/>
<path d="M1130 565 c0 -138 1 -145 20 -145 18 0 20 7 20 65 l0 66 88 -3 87 -3
3 -62 c2 -47 7 -63 17 -63 13 0 15 25 15 145 0 122 -2 145 -15 145 -12 0 -15
-13 -15 -60 l0 -60 -90 0 -90 0 0 60 c0 53 -2 60 -20 60 -19 0 -20 -7 -20
-145z"/>
<path d="M1564 659 c-14 -29 -42 -89 -61 -133 -19 -45 -37 -87 -40 -93 -3 -8
3 -13 15 -13 15 0 25 11 33 35 l13 35 81 0 81 0 17 -35 c11 -23 24 -35 36 -35
23 0 31 -23 -62 185 -55 124 -73 132 -113 54z m100 -116 c7 -22 5 -23 -53 -23
-34 0 -61 3 -61 7 0 4 12 38 27 76 l27 69 27 -54 c14 -29 30 -63 33 -75z"/>
<path d="M1840 565 c0 -137 1 -145 19 -145 16 0 20 8 23 43 l3 42 45 3 c44 3
47 1 78 -43 20 -29 39 -45 52 -45 20 0 19 3 -11 46 -32 46 -32 47 -12 63 44
34 52 74 27 126 -20 42 -55 55 -150 55 l-74 0 0 -145z m180 90 c29 -26 26 -69
-6 -94 -20 -15 -41 -21 -80 -21 l-54 0 0 63 c0 35 3 67 8 71 13 14 111 0 132
-19z"/>
<path d="M2180 566 c0 -122 2 -146 15 -146 11 0 15 20 17 103 l3 102 42 -65
c63 -98 74 -111 82 -106 4 3 30 42 57 88 l49 83 3 -102 c2 -95 4 -103 22 -103
19 0 20 8 20 145 0 185 -9 189 -94 44 -36 -61 -62 -97 -68 -91 -5 5 -33 49
-62 98 -79 132 -86 127 -86 -50z"/>
<path d="M2669 643 c-17 -38 -46 -103 -65 -145 -31 -72 -32 -78 -14 -78 13 0
25 12 34 35 l15 35 81 0 80 0 17 -35 c10 -21 24 -35 35 -35 10 0 18 1 18 3 0
7 -80 188 -105 236 -36 73 -56 69 -96 -16z m85 -44 c14 -33 26 -65 26 -70 0
-5 -27 -9 -60 -9 -33 0 -60 2 -60 5 0 14 53 135 60 135 4 0 19 -27 34 -61z"/>
<path d="M1530 185 l0 -55 43 2 c36 1 38 2 10 5 -32 4 -33 5 -33 54 0 27 -4
49 -10 49 -5 0 -10 -25 -10 -55z"/>
<path d="M1670 186 c0 -31 5 -56 10 -56 6 0 10 22 10 49 0 28 -4 53 -10 56 -6
4 -10 -15 -10 -49z"/>
<path d="M1760 185 c0 -30 5 -55 10 -55 6 0 10 17 10 38 l1 37 33 -37 c18 -21
36 -38 40 -38 3 0 6 25 6 55 0 30 -4 55 -10 55 -5 0 -10 -17 -10 -37 l-1 -38
-30 38 c-17 20 -35 37 -40 37 -5 0 -9 -25 -9 -55z"/>
<path d="M1942 185 c-1 -45 2 -54 8 -37 11 27 22 28 45 2 10 -11 23 -20 28
-20 6 0 1 10 -11 23 -26 27 -27 40 -7 57 8 7 15 17 15 23 0 6 -13 -1 -28 -16
-35 -34 -40 -34 -45 1 -2 15 -4 0 -5 -33z"/>
</g>
</svg>
